<?xml version="1.0" encoding="UTF-8"?><svg id="Calque_2" xmlns="http://www.w3.org/2000/svg" viewBox="0 0 502.07 559.34"><defs><style>.cls-1{fill:#66338b;}</style></defs><g id="Calque_1-2"><path class="cls-1" d="M501.96,104.62c.08-1.52.11-3.01.11-4.52,0-55.29-44.83-100.1-100.13-100.1s-100.1,44.81-100.1,100.1c0,1.32.03,2.65.08,3.97h-.08v355.17c0,55.29,44.81,100.1,100.1,100.1s100.13-44.81,100.13-100.1c0-1.52-.03-3.01-.11-4.52V104.62ZM402.15,526.2c-33.78,0-61.17-27.39-61.17-61.17s27.39-61.17,61.17-61.17c21.45,0,40.32,11.04,51.24,27.75,6.28,9.61,9.93,21.09,9.93,33.42,0,33.78-27.39,61.17-61.17,61.17Z"/><circle class="cls-1" cx="137.06" cy="416.74" r="137.06"/></g></svg>
